<?xml version="1.0" encoding="utf-8"?>
<svg id="master-artboard" viewBox="0 0 500 500" version="1.0" xmlns="http://www.w3.org/2000/svg" x="0px" y="0px" width="500px" height="500px" enable-background="new 0 0 1400 980"><rect id="ee-background" x="0" y="0" width="500" height="500" style="fill: white; fill-opacity: 0; pointer-events: none;"/>



<g transform="matrix(1, 0, 0, 1, -131.79713439941406, -282.2052001953125)">
	
	
	
	
	
	<g transform="matrix(1, 0, 0, 1, 282.33742877171255, -84.25307697876497)">
		<g>
			<path fill="#595E80" d="M766.1,812.5H651.8c-11.9,0-21.6-9.7-21.6-21.6V577.4c0-11.9,9.7-21.6,21.6-21.6h114.3&#10;&#9;&#9;&#9;&#9;c11.9,0,21.6,9.7,21.6,21.6V791C787.7,802.9,778.1,812.5,766.1,812.5z"/>
			<path d="M 742.799999 629 A 33.799999 33.799999 0 0 1 709 662.799999 A 33.799999 33.799999 0 0 1 675.200001 629 A 33.799999 33.799999 0 0 1 709 595.200001 A 33.799999 33.799999 0 0 1 742.799999 629 Z" fill="#323E50"/>
			<path d="M 756.599998 740.200012 A 47.599998 47.599998 0 0 1 709 787.800011 A 47.599998 47.599998 0 0 1 661.400002 740.200012 A 47.599998 47.599998 0 0 1 709 692.600014 A 47.599998 47.599998 0 0 1 756.599998 740.200012 Z" fill="#323E50"/>
			<path d="M 733.6 740.200012 A 24.6 24.6 0 0 1 709 764.800013 A 24.6 24.6 0 0 1 684.4 740.200012 A 24.6 24.6 0 0 1 709 715.600012 A 24.6 24.6 0 0 1 733.6 740.200012 Z" fill="#F6F4D6"/>
			<path d="M 727 629 A 18 18 0 0 1 709 647 A 18 18 0 0 1 691 629 A 18 18 0 0 1 709 611 A 18 18 0 0 1 727 629 Z" fill="#F6F4D6"/>
			<path d="M 688.000024 713.299988 A 3.6 3.6 0 0 1 684.400024 716.899988 A 3.6 3.6 0 0 1 680.800025 713.299988 A 3.6 3.6 0 0 1 684.400024 709.699988 A 3.6 3.6 0 0 1 688.000024 713.299988 Z" fill="#F6F4D6"/>
			<path d="M 737.199975 713.299988 A 3.6 3.6 0 0 1 733.599976 716.899988 A 3.6 3.6 0 0 1 729.999976 713.299988 A 3.6 3.6 0 0 1 733.599976 709.699988 A 3.6 3.6 0 0 1 737.199975 713.299988 Z" fill="#F6F4D6"/>
			<path d="M 688.000024 768.400024 A 3.6 3.6 0 0 1 684.400024 772.000024 A 3.6 3.6 0 0 1 680.800025 768.400024 A 3.6 3.6 0 0 1 684.400024 764.800025 A 3.6 3.6 0 0 1 688.000024 768.400024 Z" fill="#F6F4D6"/>
			<path d="M 737.199975 768.400024 A 3.6 3.6 0 0 1 733.599976 772.000024 A 3.6 3.6 0 0 1 729.999976 768.400024 A 3.6 3.6 0 0 1 733.599976 764.800025 A 3.6 3.6 0 0 1 737.199975 768.400024 Z" fill="#F6F4D6"/>
		</g>
		<g>
			<g>
				<path d="M 656 574.900024 A 6.5 6.5 0 0 1 649.5 581.400024 A 6.5 6.5 0 0 1 643 574.900024 A 6.5 6.5 0 0 1 649.5 568.400024 A 6.5 6.5 0 0 1 656 574.900024 Z" fill="#323E50"/>
				<path d="M 775 574.900024 A 6.5 6.5 0 0 1 768.5 581.400024 A 6.5 6.5 0 0 1 762 574.900024 A 6.5 6.5 0 0 1 768.5 568.400024 A 6.5 6.5 0 0 1 775 574.900024 Z" fill="#323E50"/>
			</g>
			<g>
				<path d="M 656 793.5 A 6.5 6.5 0 0 1 649.5 800 A 6.5 6.5 0 0 1 643 793.5 A 6.5 6.5 0 0 1 649.5 787 A 6.5 6.5 0 0 1 656 793.5 Z" fill="#323E50"/>
				<path d="M 775 793.5 A 6.5 6.5 0 0 1 768.5 800 A 6.5 6.5 0 0 1 762 793.5 A 6.5 6.5 0 0 1 768.5 787 A 6.5 6.5 0 0 1 775 793.5 Z" fill="#323E50"/>
			</g>
		</g>
		<g>
			<path fill="#323E50" d="M665.8,824.2h-9.2c-1.7,0-3.2-1.2-3.6-2.8l-2.3-8.8h21l-2.3,8.8C669,823,667.5,824.2,665.8,824.2z"/>
			<path fill="#323E50" d="M761.4,824.2h-9.2c-1.7,0-3.2-1.2-3.6-2.8l-2.3-8.8h21l-2.3,8.8C764.6,823,763.1,824.2,761.4,824.2z"/>
		</g>
	</g>
	
	
<g transform="matrix(1, 0, 0, 1, 43.91915512084961, -159.9172053131132)">
		<path fill="#6F7588" d="M494.7,797.4H186.5c-16.2,0-29.3-13.1-29.3-29.3V612c0-16.2,13.1-29.3,29.3-29.3h308.1&#10;&#9;&#9;&#9;c16.2,0,29.3,13.1,29.3,29.3V768C524,784.2,510.9,797.4,494.7,797.4z" style="fill: rgb(230, 223, 237);" transform="matrix(1.0300845412938089, 0, 0, 1.0300845412938089, -20.693666401312054, -19.683307628199007)"/>
		<path fill="#FCF4E4" d="M476,782.5H205.2c-14.2,0-25.7-11.5-25.7-25.7v-62.3c0-2.5,2-4.5,4.5-4.5h313.2c2.5,0,4.5,2,4.5,4.5v62.3&#10;&#9;&#9;&#9;C501.7,771,490.2,782.5,476,782.5z" transform="matrix(1.0300845412938089, 0, 0, 1.0300845412938089, -20.693666401312054, -19.683307628199007)"/>
		<path d="M 203.899994 744.599976 H 209.699994 V 782.499977 H 203.899994 V 744.599976 Z" fill="#E0D9CB" transform="matrix(1.0300845412938089, 0, 0, 1.0300845412938089, -20.693666401312054, -19.683307628199007)"/>
		<path d="M 237.399994 744.599976 H 243.199994 V 782.499977 H 237.399994 V 744.599976 Z" fill="#E0D9CB" transform="matrix(1.0300845412938089, 0, 0, 1.0300845412938089, -20.693666401312054, -19.683307628199007)"/>
		<path d="M 270.799988 744.599976 H 276.599988 V 782.499977 H 270.799988 V 744.599976 Z" fill="#E0D9CB" transform="matrix(1.0300845412938089, 0, 0, 1.0300845412938089, -20.693666401312054, -19.683307628199007)"/>
		<path d="M 304.299988 744.599976 H 310.099988 V 782.499977 H 304.299988 V 744.599976 Z" fill="#E0D9CB" transform="matrix(1.0300845412938089, 0, 0, 1.0300845412938089, -20.693666401312054, -19.683307628199007)"/>
		<path d="M 337.700012 744.599976 H 343.500012 V 782.499977 H 337.700012 V 744.599976 Z" fill="#E0D9CB" transform="matrix(1.0300845412938089, 0, 0, 1.0300845412938089, -20.693666401312054, -19.683307628199007)"/>
		<path d="M 371.100006 744.599976 H 376.900006 V 782.499977 H 371.100006 V 744.599976 Z" fill="#E0D9CB" transform="matrix(1.0300845412938089, 0, 0, 1.0300845412938089, -20.693666401312054, -19.683307628199007)"/>
		<path d="M 404.600006 744.599976 H 410.400006 V 782.499977 H 404.600006 V 744.599976 Z" fill="#E0D9CB" transform="matrix(1.0300845412938089, 0, 0, 1.0300845412938089, -20.693666401312054, -19.683307628199007)"/>
		<path d="M 438 744.599976 H 443.8 V 782.499977 H 438 V 744.599976 Z" fill="#E0D9CB" transform="matrix(1.0300845412938089, 0, 0, 1.0300845412938089, -20.693666401312054, -19.683307628199007)"/>
		<path d="M 471.5 744.599976 H 477.3 V 782.499977 H 471.5 V 744.599976 Z" fill="#E0D9CB" transform="matrix(1.0300845412938089, 0, 0, 1.0300845412938089, -20.693666401312054, -19.683307628199007)"/>
		<g transform="matrix(1.0300845412938089, 0, 0, 1.0300845412938089, -20.693666401312054, -19.683307628199007)">
			<path fill="#444A54" d="M209.9,744.6h-6.1c-2.7,0-4.9-2.2-4.9-4.9V690h15.9v49.7C214.8,742.4,212.6,744.6,209.9,744.6z"/>
			<path fill="#444A54" d="M243.3,744.6h-6.1c-2.7,0-4.9-2.2-4.9-4.9V690h15.9v49.7C248.2,742.4,246,744.6,243.3,744.6z"/>
			<path fill="#444A54" d="M276.8,744.6h-6.1c-2.7,0-4.9-2.2-4.9-4.9V690h15.9v49.7C281.7,742.4,279.5,744.6,276.8,744.6z"/>
			<path fill="#444A54" d="M310.2,744.6h-6.1c-2.7,0-4.9-2.2-4.9-4.9V690h15.9v49.7C315.1,742.4,312.9,744.6,310.2,744.6z"/>
			<path fill="#444A54" d="M343.6,744.6h-6.1c-2.7,0-4.9-2.2-4.9-4.9V690h15.9v49.7C348.6,742.4,346.4,744.6,343.6,744.6z"/>
			<path fill="#444A54" d="M377.1,744.6H371c-2.7,0-4.9-2.2-4.9-4.9V690H382v49.7C382,742.4,379.8,744.6,377.1,744.6z"/>
			<path fill="#444A54" d="M410.5,744.6h-6.1c-2.7,0-4.9-2.2-4.9-4.9V690h15.9v49.7C415.4,742.4,413.2,744.6,410.5,744.6z"/>
			<path fill="#444A54" d="M444,744.6h-6.1c-2.7,0-4.9-2.2-4.9-4.9V690h15.9v49.7C448.9,742.4,446.7,744.6,444,744.6z"/>
			<path fill="#444A54" d="M477.4,744.6h-6.1c-2.7,0-4.9-2.2-4.9-4.9V690h15.9v49.7C482.3,742.4,480.1,744.6,477.4,744.6z"/>
		</g>
		<path fill="#444A54" d="M232.4,650.5h-42.1c-6,0-10.8-4.8-10.8-10.8v-15.4c0-6,4.8-10.8,10.8-10.8h42.1c6,0,10.8,4.8,10.8,10.8&#10;&#9;&#9;&#9;v15.4C243.2,645.7,238.3,650.5,232.4,650.5z" transform="matrix(1.0300845412938089, 0, 0, 1.0300845412938089, -20.693666401312054, -19.683307628199007)"/>
		<path fill="#444A54" d="M490.9,650.5h-42.1c-6,0-10.8-4.8-10.8-10.8v-15.4c0-6,4.8-10.8,10.8-10.8h42.1c6,0,10.8,4.8,10.8,10.8&#10;&#9;&#9;&#9;v15.4C501.7,645.7,496.9,650.5,490.9,650.5z" transform="matrix(1.0300845412938089, 0, 0, 1.0300845412938089, -20.693666401312054, -19.683307628199007)"/>
		<path d="M 224.600003 632 A 13.3 13.3 0 0 1 211.300003 645.3 A 13.3 13.3 0 0 1 198.000003 632 A 13.3 13.3 0 0 1 211.300003 618.7 A 13.3 13.3 0 0 1 224.600003 632 Z" fill="#666D78" transform="matrix(1.0300845412938089, 0, 0, 1.0300845412938089, -20.693666401312054, -19.683307628199007)"/>
		<path d="M 483.199994 632 A 13.3 13.3 0 0 1 469.899994 645.3 A 13.3 13.3 0 0 1 456.599994 632 A 13.3 13.3 0 0 1 469.899994 618.7 A 13.3 13.3 0 0 1 483.199994 632 Z" fill="#666D78" transform="matrix(1.0300845412938089, 0, 0, 1.0300845412938089, -20.693666401312054, -19.683307628199007)"/>
		<path fill="#FFCE55" d="M385.6,645.3h-90c-7.7,0-13.9-6.2-13.9-13.9v-16.3c0-7.7,6.2-13.9,13.9-13.9h90c7.7,0,13.9,6.2,13.9,13.9&#10;&#9;&#9;&#9;v16.3C399.5,639,393.3,645.3,385.6,645.3z" transform="matrix(1.0300845412938089, 0, 0, 1.0300845412938089, -20.693666401312054, -19.683307628199007)"/>
		<g transform="matrix(1.0300845412938089, 0, 0, 1.0300845412938089, -20.693666401312054, -19.683307628199007)">
			<path fill="#E6E9EC" d="M291.7,661.3h-7.3c-1.5,0-2.6-1.2-2.6-2.6v-0.7c0-1.5,1.2-2.6,2.6-2.6h7.3c1.5,0,2.6,1.2,2.6,2.6v0.7&#10;&#9;&#9;&#9;&#9;C294.3,660.1,293.1,661.3,291.7,661.3z"/>
			<path fill="#E6E9EC" d="M291.7,673.2h-7.3c-1.5,0-2.6-1.2-2.6-2.6v-0.7c0-1.5,1.2-2.6,2.6-2.6h7.3c1.5,0,2.6,1.2,2.6,2.6v0.7&#10;&#9;&#9;&#9;&#9;C294.3,672.1,293.1,673.2,291.7,673.2z"/>
		</g>
		<g transform="matrix(1.0300845412938089, 0, 0, 1.0300845412938089, -20.693666401312054, -19.683307628199007)">
			<path fill="#E6E9EC" d="M312.5,661.3h-7.3c-1.5,0-2.6-1.2-2.6-2.6v-0.7c0-1.5,1.2-2.6,2.6-2.6h7.3c1.5,0,2.6,1.2,2.6,2.6v0.7&#10;&#9;&#9;&#9;&#9;C315.1,660.1,313.9,661.3,312.5,661.3z"/>
			<path fill="#E6E9EC" d="M312.5,673.2h-7.3c-1.5,0-2.6-1.2-2.6-2.6v-0.7c0-1.5,1.2-2.6,2.6-2.6h7.3c1.5,0,2.6,1.2,2.6,2.6v0.7&#10;&#9;&#9;&#9;&#9;C315.1,672.1,313.9,673.2,312.5,673.2z"/>
		</g>
		<g transform="matrix(1.0300845412938089, 0, 0, 1.0300845412938089, -20.693666401312054, -19.683307628199007)">
			<path fill="#E6E9EC" d="M333.3,661.3h-7.3c-1.5,0-2.6-1.2-2.6-2.6v-0.7c0-1.5,1.2-2.6,2.6-2.6h7.3c1.5,0,2.6,1.2,2.6,2.6v0.7&#10;&#9;&#9;&#9;&#9;C335.9,660.1,334.7,661.3,333.3,661.3z"/>
			<path fill="#E6E9EC" d="M333.3,673.2h-7.3c-1.5,0-2.6-1.2-2.6-2.6v-0.7c0-1.5,1.2-2.6,2.6-2.6h7.3c1.5,0,2.6,1.2,2.6,2.6v0.7&#10;&#9;&#9;&#9;&#9;C335.9,672.1,334.7,673.2,333.3,673.2z"/>
		</g>
		<g transform="matrix(1.0300845412938089, 0, 0, 1.0300845412938089, -20.693666401312054, -19.683307628199007)">
			<path fill="#E6E9EC" d="M355.3,661.3h-7.3c-1.5,0-2.6-1.2-2.6-2.6v-0.7c0-1.5,1.2-2.6,2.6-2.6h7.3c1.5,0,2.6,1.2,2.6,2.6v0.7&#10;&#9;&#9;&#9;&#9;C357.9,660.1,356.7,661.3,355.3,661.3z"/>
			<path fill="#E6E9EC" d="M355.3,673.2h-7.3c-1.5,0-2.6-1.2-2.6-2.6v-0.7c0-1.5,1.2-2.6,2.6-2.6h7.3c1.5,0,2.6,1.2,2.6,2.6v0.7&#10;&#9;&#9;&#9;&#9;C357.9,672.1,356.7,673.2,355.3,673.2z"/>
		</g>
		<g transform="matrix(1.0300845412938089, 0, 0, 1.0300845412938089, -20.693666401312054, -19.683307628199007)">
			<path fill="#E6E9EC" d="M376.1,661.3h-7.3c-1.5,0-2.6-1.2-2.6-2.6v-0.7c0-1.5,1.2-2.6,2.6-2.6h7.3c1.5,0,2.6,1.2,2.6,2.6v0.7&#10;&#9;&#9;&#9;&#9;C378.7,660.1,377.5,661.3,376.1,661.3z"/>
			<path fill="#E6E9EC" d="M376.1,673.2h-7.3c-1.5,0-2.6-1.2-2.6-2.6v-0.7c0-1.5,1.2-2.6,2.6-2.6h7.3c1.5,0,2.6,1.2,2.6,2.6v0.7&#10;&#9;&#9;&#9;&#9;C378.7,672.1,377.5,673.2,376.1,673.2z"/>
		</g>
		<g transform="matrix(1.0300845412938089, 0, 0, 1.0300845412938089, -20.693666401312054, -19.683307628199007)">
			<path fill="#E6E9EC" d="M396.9,661.3h-7.3c-1.5,0-2.6-1.2-2.6-2.6v-0.7c0-1.5,1.2-2.6,2.6-2.6h7.3c1.5,0,2.6,1.2,2.6,2.6v0.7&#10;&#9;&#9;&#9;&#9;C399.5,660.1,398.3,661.3,396.9,661.3z"/>
			<path fill="#E6E9EC" d="M396.9,673.2h-7.3c-1.5,0-2.6-1.2-2.6-2.6v-0.7c0-1.5,1.2-2.6,2.6-2.6h7.3c1.5,0,2.6,1.2,2.6,2.6v0.7&#10;&#9;&#9;&#9;&#9;C399.5,672.1,398.3,673.2,396.9,673.2z"/>
		</g>
	<path style="fill: rgb(230, 223, 237); fill-opacity: 1; stroke: rgb(0, 0, 0); stroke-opacity: 1; stroke-width: 0; paint-order: fill;" d="M 263.2828674316406 606.0442504882812 L 263.2828674316406 606.0442504882812"/><path style="fill: rgb(230, 223, 237); fill-opacity: 1; stroke: rgb(0, 0, 0); stroke-opacity: 1; stroke-width: 0; paint-order: fill;" d="M 104.5855941772461 589.8672485351562"/></g></g></svg>