<?xml version="1.0" encoding="utf-8"?>
<svg id="master-artboard" viewBox="0 0 500 500" version="1.1" xmlns="http://www.w3.org/2000/svg" x="0px" y="0px" width="500px" height="500px" enable-background="new 0 0 1400 980"><rect id="ee-background" x="0" y="0" width="500" height="500" style="fill: white; fill-opacity: 0; pointer-events: none;"/>


























<g transform="matrix(1, 0, 0, 1, -411.76133394241333, -304.7451477050781)">
	<g id="XMLID_151_" transform="matrix(1, 0, 0, 1, -30.43504697646938, -134.27226656203692)">
		<path fill="#F1F2F2" d="M869.7,637.2H530.3c-7.2,0-13,5.8-13,13v223.5c0,7.2,5.8,13,13,13h339.3c7.2,0,13-5.8,13-13V650.2&#10;&#9;&#9;&#9;C882.6,643.1,876.8,637.2,869.7,637.2z" style="fill: rgb(215, 215, 215);" transform="matrix(1, 0, 0, 1, -0.288230875851923, -0.5764617517037323)"/>
	<path style="fill: rgb(241, 242, 242); fill-opacity: 1; stroke: rgb(0, 0, 0); stroke-opacity: 1; stroke-width: 0; paint-order: fill;" d="M 333.1458740234375 809.982421875 L 593.0755615234375 859.2794189453125"/><path style="fill: rgb(241, 242, 242); fill-opacity: 1; stroke: rgb(0, 0, 0); stroke-opacity: 1; stroke-width: 0; paint-order: fill;" d="M 523.1634521484375 984.7626953125"/><path style="fill: rgb(217, 217, 217); fill-opacity: 1; stroke: rgb(0, 0, 0); stroke-opacity: 1; stroke-width: 0; paint-order: fill;" d="M 593.8837280273438 829.04345703125 L 593.8837280273438 829.04345703125"/><path style="fill: rgb(217, 217, 217); fill-opacity: 1; stroke: rgb(0, 0, 0); stroke-opacity: 1; stroke-width: 0; paint-order: fill;" d="M 560.5077514648438 851.1929931640625"/></g>
	<g id="XMLID_150_" transform="matrix(1, 0, 0, 1, -30.43504697646938, -134.27226656203692)">
		<path fill="#414042" d="M883.5,624.7c-2,6.9-9.5,12.6-16.7,12.6H533.2c-7.2,0-14.7-5.7-16.7-12.6l-32-110.6&#10;&#9;&#9;&#9;c-2-6.9,2.3-12.6,9.4-12.6h412c7.2,0,11.4,5.7,9.4,12.6L883.5,624.7z"/>
	</g>
	<g id="XMLID_149_" transform="matrix(1, 0, 0, 1, -30.43504697646938, -134.27226656203692)">
		<path d="M 866.4000244140625 627.9000244140625 L 533.5999755859375 627.9000244140625 L 501.70001220703125 511.70001220703125 L 898.2999877929688 511.70001220703125 Z" fill="#58595B"/>
	</g>
	<g id="XMLID_144_" transform="matrix(1, 0, 0, 1, -30.43504697646938, -134.27226656203692)">
		<path fill="#E6E7E8" d="M839.5,657.5h-279c-2.4,0-4.3,1.9-4.3,4.3v112.7c0,2.4,1.9,4.3,4.3,4.3h279c2.4,0,4.3-1.9,4.3-4.3V661.8&#10;&#9;&#9;&#9;C843.8,659.4,841.9,657.5,839.5,657.5z"/>
	</g>
	<g id="XMLID_143_" transform="matrix(1, 0, 0, 1, -30.43504697646938, -134.27226656203692)">
		<path fill="#D1D3D4" d="M748.8,793.5h-97.5c-2.1,0-3.8,1.7-3.8,3.8v69.3c0,2.1,1.7,3.8,3.8,3.8h97.5c2.1,0,3.8-1.7,3.8-3.8v-69.3&#10;&#9;&#9;&#9;C752.5,795.2,750.9,793.5,748.8,793.5z" style="fill: rgb(238, 238, 238);"/>
	<path style="fill: rgb(238, 238, 238); fill-opacity: 1; stroke: rgb(0, 0, 0); stroke-opacity: 1; stroke-width: 0; paint-order: fill;" d="M 706.4519653320312 840.2698974609375 L 706.4519653320312 840.2698974609375"/></g>
	<g id="XMLID_142_" transform="matrix(1, 0, 0, 1, -30.43504697646938, -134.27226656203692)">
		<path fill="#D1D3D4" d="M724.6,886.7h-49.3v-0.1c0-1.3,1.1-2.4,2.4-2.4h44.4c1.3,0,2.4,1.1,2.4,2.4V886.7z"/>
	</g>
	<g id="XMLID_141_" transform="matrix(1, 0, 0, 1, -30.43504697646938, -134.27226656203692)">
		<path d="M 563.799988 637.200012 H 836.099976 V 648.400012 H 563.799988 V 637.200012 Z" fill="#414042"/>
	</g>
	<g id="XMLID_52_" transform="matrix(1, 0, 0, 1, -30.43504697646938, -134.27226656203692)">
		<g id="XMLID_140_">
			<path fill="#414042" d="M565.2,675.1h12.6c1.3,0,2.4-1.1,2.4-2.4v-4.9c0-1.3-1.1-2.4-2.4-2.4h-12.6c-1.3,0-2.4,1.1-2.4,2.4v4.9&#10;&#9;&#9;&#9;&#9;C562.9,674,563.9,675.1,565.2,675.1z"/>
		</g>
		<g id="XMLID_139_">
			<path fill="#414042" d="M585,675.1h12.6c1.3,0,2.4-1.1,2.4-2.4v-4.9c0-1.3-1.1-2.4-2.4-2.4H585c-1.3,0-2.4,1.1-2.4,2.4v4.9&#10;&#9;&#9;&#9;&#9;C582.6,674,583.7,675.1,585,675.1z"/>
		</g>
		<g id="XMLID_138_">
			<path fill="#414042" d="M604.8,675.1h12.6c1.3,0,2.4-1.1,2.4-2.4v-4.9c0-1.3-1.1-2.4-2.4-2.4h-12.6c-1.3,0-2.4,1.1-2.4,2.4v4.9&#10;&#9;&#9;&#9;&#9;C602.4,674,603.4,675.1,604.8,675.1z"/>
		</g>
		<g id="XMLID_137_">
			<path fill="#414042" d="M624.5,675.1h12.6c1.3,0,2.4-1.1,2.4-2.4v-4.9c0-1.3-1.1-2.4-2.4-2.4h-12.6c-1.3,0-2.4,1.1-2.4,2.4v4.9&#10;&#9;&#9;&#9;&#9;C622.1,674,623.2,675.1,624.5,675.1z"/>
		</g>
		<g id="XMLID_136_">
			<path fill="#414042" d="M644.3,675.1h12.6c1.3,0,2.4-1.1,2.4-2.4v-4.9c0-1.3-1.1-2.4-2.4-2.4h-12.6c-1.3,0-2.4,1.1-2.4,2.4v4.9&#10;&#9;&#9;&#9;&#9;C641.9,674,643,675.1,644.3,675.1z"/>
		</g>
		<g id="XMLID_135_">
			<path fill="#414042" d="M664,675.1h12.6c1.3,0,2.4-1.1,2.4-2.4v-4.9c0-1.3-1.1-2.4-2.4-2.4H664c-1.3,0-2.4,1.1-2.4,2.4v4.9&#10;&#9;&#9;&#9;&#9;C661.7,674,662.7,675.1,664,675.1z"/>
		</g>
		<g id="XMLID_134_">
			<path fill="#414042" d="M683.8,675.1h12.6c1.3,0,2.4-1.1,2.4-2.4v-4.9c0-1.3-1.1-2.4-2.4-2.4h-12.6c-1.3,0-2.4,1.1-2.4,2.4v4.9&#10;&#9;&#9;&#9;&#9;C681.4,674,682.5,675.1,683.8,675.1z"/>
		</g>
		<g id="XMLID_133_">
			<path fill="#414042" d="M703.6,675.1h12.6c1.3,0,2.4-1.1,2.4-2.4v-4.9c0-1.3-1.1-2.4-2.4-2.4h-12.6c-1.3,0-2.4,1.1-2.4,2.4v4.9&#10;&#9;&#9;&#9;&#9;C701.2,674,702.2,675.1,703.6,675.1z"/>
		</g>
		<g id="XMLID_132_">
			<path fill="#414042" d="M723.3,675.1H736c1.3,0,2.4-1.1,2.4-2.4v-4.9c0-1.3-1.1-2.4-2.4-2.4h-12.6c-1.3,0-2.4,1.1-2.4,2.4v4.9&#10;&#9;&#9;&#9;&#9;C720.9,674,722,675.1,723.3,675.1z"/>
		</g>
		<g id="XMLID_131_">
			<path fill="#414042" d="M743.1,675.1h12.6c1.3,0,2.4-1.1,2.4-2.4v-4.9c0-1.3-1.1-2.4-2.4-2.4h-12.6c-1.3,0-2.4,1.1-2.4,2.4v4.9&#10;&#9;&#9;&#9;&#9;C740.7,674,741.8,675.1,743.1,675.1z"/>
		</g>
		<g id="XMLID_130_">
			<path fill="#414042" d="M762.8,675.1h12.6c1.3,0,2.4-1.1,2.4-2.4v-4.9c0-1.3-1.1-2.4-2.4-2.4h-12.6c-1.3,0-2.4,1.1-2.4,2.4v4.9&#10;&#9;&#9;&#9;&#9;C760.5,674,761.5,675.1,762.8,675.1z"/>
		</g>
		<g id="XMLID_129_">
			<path fill="#414042" d="M782.6,675.1h12.6c1.3,0,2.4-1.1,2.4-2.4v-4.9c0-1.3-1.1-2.4-2.4-2.4h-12.6c-1.3,0-2.4,1.1-2.4,2.4v4.9&#10;&#9;&#9;&#9;&#9;C780.2,674,781.3,675.1,782.6,675.1z"/>
		</g>
		<g id="XMLID_128_">
			<path fill="#414042" d="M802.4,675.1H815c1.3,0,2.4-1.1,2.4-2.4v-4.9c0-1.3-1.1-2.4-2.4-2.4h-12.6c-1.3,0-2.4,1.1-2.4,2.4v4.9&#10;&#9;&#9;&#9;&#9;C800,674,801.1,675.1,802.4,675.1z"/>
		</g>
		<g id="XMLID_127_">
			<path fill="#414042" d="M822.1,675.1h12.6c1.3,0,2.4-1.1,2.4-2.4v-4.9c0-1.3-1.1-2.4-2.4-2.4h-12.6c-1.3,0-2.4,1.1-2.4,2.4v4.9&#10;&#9;&#9;&#9;&#9;C819.8,674,820.8,675.1,822.1,675.1z"/>
		</g>
		<g id="XMLID_126_">
			<path fill="#414042" d="M584.1,693.8h12c1.2,0,2.2-1,2.2-2.2v-12c0-1.2-1-2.2-2.2-2.2h-12c-1.2,0-2.2,1-2.2,2.2v12&#10;&#9;&#9;&#9;&#9;C581.9,692.8,582.9,693.8,584.1,693.8z"/>
		</g>
		<g id="XMLID_124_">
			<path fill="#414042" d="M565.1,693.8h12c1.2,0,2.2-1,2.2-2.2v-12c0-1.2-1-2.2-2.2-2.2h-12c-1.2,0-2.2,1-2.2,2.2v12&#10;&#9;&#9;&#9;&#9;C562.9,692.8,563.8,693.8,565.1,693.8z"/>
		</g>
		<g id="XMLID_123_">
			<path fill="#414042" d="M603.2,693.8h12c1.2,0,2.2-1,2.2-2.2v-12c0-1.2-1-2.2-2.2-2.2h-12c-1.2,0-2.2,1-2.2,2.2v12&#10;&#9;&#9;&#9;&#9;C601,692.8,602,693.8,603.2,693.8z"/>
		</g>
		<g id="XMLID_122_">
			<path fill="#414042" d="M622.3,693.8h12c1.2,0,2.2-1,2.2-2.2v-12c0-1.2-1-2.2-2.2-2.2h-12c-1.2,0-2.2,1-2.2,2.2v12&#10;&#9;&#9;&#9;&#9;C620,692.8,621,693.8,622.3,693.8z"/>
		</g>
		<g id="XMLID_121_">
			<path fill="#414042" d="M639.1,691.6c0,1.2,1,2.2,2.2,2.2h12c1.2,0,2.2-1,2.2-2.2v-12c0-1.2-1-2.2-2.2-2.2h-12&#10;&#9;&#9;&#9;&#9;c-1.2,0-2.2,1-2.2,2.2V691.6z"/>
		</g>
		<g id="XMLID_120_">
			<path fill="#414042" d="M658.2,679.6v12c0,1.2,1,2.2,2.2,2.2h12c1.2,0,2.2-1,2.2-2.2v-12c0-1.2-1-2.2-2.2-2.2h-12&#10;&#9;&#9;&#9;&#9;C659.2,677.4,658.2,678.4,658.2,679.6z"/>
		</g>
		<g id="XMLID_119_">
			<path fill="#414042" d="M677.2,679.6v12c0,1.2,1,2.2,2.2,2.2h12c1.2,0,2.2-1,2.2-2.2v-12c0-1.2-1-2.2-2.2-2.2h-12&#10;&#9;&#9;&#9;&#9;C678.2,677.4,677.2,678.4,677.2,679.6z"/>
		</g>
		<g id="XMLID_118_">
			<path fill="#414042" d="M710.5,677.4h-12c-1.2,0-2.2,1-2.2,2.2v12c0,1.2,1,2.2,2.2,2.2h12c1.2,0,2.2-1,2.2-2.2v-12&#10;&#9;&#9;&#9;&#9;C712.7,678.4,711.7,677.4,710.5,677.4z"/>
		</g>
		<g id="XMLID_117_">
			<path fill="#414042" d="M729.6,693.8c1.2,0,2.2-1,2.2-2.2v-12c0-1.2-1-2.2-2.2-2.2h-12c-1.2,0-2.2,1-2.2,2.2v12&#10;&#9;&#9;&#9;&#9;c0,1.2,1,2.2,2.2,2.2H729.6z"/>
		</g>
		<g id="XMLID_116_">
			<path fill="#414042" d="M748.6,677.4h-12c-1.2,0-2.2,1-2.2,2.2v12c0,1.2,1,2.2,2.2,2.2h12c1.2,0,2.2-1,2.2-2.2v-12&#10;&#9;&#9;&#9;&#9;C750.8,678.4,749.8,677.4,748.6,677.4z"/>
		</g>
		<g id="XMLID_115_">
			<path fill="#414042" d="M767.7,677.4h-12c-1.2,0-2.2,1-2.2,2.2v12c0,1.2,1,2.2,2.2,2.2h12c1.2,0,2.2-1,2.2-2.2v-12&#10;&#9;&#9;&#9;&#9;C769.9,678.4,768.9,677.4,767.7,677.4z"/>
		</g>
		<g id="XMLID_114_">
			<path fill="#414042" d="M786.7,677.4h-12c-1.2,0-2.2,1-2.2,2.2v12c0,1.2,1,2.2,2.2,2.2h12c1.2,0,2.2-1,2.2-2.2v-12&#10;&#9;&#9;&#9;&#9;C788.9,678.4,788,677.4,786.7,677.4z"/>
		</g>
		<g id="XMLID_113_">
			<path fill="#414042" d="M805.8,677.4h-12c-1.2,0-2.2,1-2.2,2.2v12c0,1.2,1,2.2,2.2,2.2h12c1.2,0,2.2-1,2.2-2.2v-12&#10;&#9;&#9;&#9;&#9;C808,678.4,807,677.4,805.8,677.4z"/>
		</g>
		<g id="XMLID_112_">
			<path fill="#414042" d="M834.9,677.4h-22.1c-1.2,0-2.2,1-2.2,2.2v12c0,1.2,1,2.2,2.2,2.2h22.1c1.2,0,2.2-1,2.2-2.2v-12&#10;&#9;&#9;&#9;&#9;C837.1,678.4,836.2,677.4,834.9,677.4z"/>
		</g>
		<g id="XMLID_111_">
			<path fill="#414042" d="M815.9,712.8c1.2,0,2.2-1,2.2-2.2v-12c0-1.2-1-2.2-2.2-2.2h-12c-1.2,0-2.2,1-2.2,2.2v12&#10;&#9;&#9;&#9;&#9;c0,1.2,1,2.2,2.2,2.2H815.9z"/>
		</g>
		<g id="XMLID_110_">
			<path fill="#414042" d="M834.9,696.5h-12c-1.2,0-2.2,1-2.2,2.2v12c0,1.2,1,2.2,2.2,2.2h12c1.2,0,2.2-1,2.2-2.2v-12&#10;&#9;&#9;&#9;&#9;C837.1,697.4,836.2,696.5,834.9,696.5z"/>
		</g>
		<g id="XMLID_109_">
			<path fill="#414042" d="M782.6,698.7v12c0,1.2,1,2.2,2.2,2.2h12c1.2,0,2.2-1,2.2-2.2v-12c0-1.2-1-2.2-2.2-2.2h-12&#10;&#9;&#9;&#9;&#9;C783.6,696.5,782.6,697.4,782.6,698.7z"/>
		</g>
		<g id="XMLID_107_">
			<path fill="#414042" d="M763.6,698.7v12c0,1.2,1,2.2,2.2,2.2h12c1.2,0,2.2-1,2.2-2.2v-12c0-1.2-1-2.2-2.2-2.2h-12&#10;&#9;&#9;&#9;&#9;C764.5,696.5,763.6,697.4,763.6,698.7z"/>
		</g>
		<g id="XMLID_106_">
			<path fill="#414042" d="M744.5,698.7v12c0,1.2,1,2.2,2.2,2.2h12c1.2,0,2.2-1,2.2-2.2v-12c0-1.2-1-2.2-2.2-2.2h-12&#10;&#9;&#9;&#9;&#9;C745.5,696.5,744.5,697.4,744.5,698.7z"/>
		</g>
		<g id="XMLID_105_">
			<path fill="#414042" d="M739.6,712.8c1.2,0,2.2-1,2.2-2.2v-12c0-1.2-1-2.2-2.2-2.2h-12c-1.2,0-2.2,1-2.2,2.2v12&#10;&#9;&#9;&#9;&#9;c0,1.2,1,2.2,2.2,2.2H739.6z"/>
		</g>
		<g id="XMLID_104_">
			<path fill="#414042" d="M706.4,698.7v12c0,1.2,1,2.2,2.2,2.2h12c1.2,0,2.2-1,2.2-2.2v-12c0-1.2-1-2.2-2.2-2.2h-12&#10;&#9;&#9;&#9;&#9;C707.4,696.5,706.4,697.4,706.4,698.7z"/>
		</g>
		<g id="XMLID_103_">
			<path fill="#414042" d="M687.3,698.7v12c0,1.2,1,2.2,2.2,2.2h12c1.2,0,2.2-1,2.2-2.2v-12c0-1.2-1-2.2-2.2-2.2h-12&#10;&#9;&#9;&#9;&#9;C688.3,696.5,687.3,697.4,687.3,698.7z"/>
		</g>
		<g id="XMLID_101_">
			<path fill="#414042" d="M682.4,712.8c1.2,0,2.2-1,2.2-2.2v-12c0-1.2-1-2.2-2.2-2.2h-12c-1.2,0-2.2,1-2.2,2.2v12&#10;&#9;&#9;&#9;&#9;c0,1.2,1,2.2,2.2,2.2H682.4z"/>
		</g>
		<g id="XMLID_99_">
			<path fill="#414042" d="M663.4,712.8c1.2,0,2.2-1,2.2-2.2v-12c0-1.2-1-2.2-2.2-2.2h-12c-1.2,0-2.2,1-2.2,2.2v12&#10;&#9;&#9;&#9;&#9;c0,1.2,1,2.2,2.2,2.2H663.4z"/>
		</g>
		<g id="XMLID_98_">
			<path fill="#414042" d="M644.3,712.8c1.2,0,2.2-1,2.2-2.2v-12c0-1.2-1-2.2-2.2-2.2h-12c-1.2,0-2.2,1-2.2,2.2v12&#10;&#9;&#9;&#9;&#9;c0,1.2,1,2.2,2.2,2.2H644.3z"/>
		</g>
		<g id="XMLID_95_">
			<path fill="#414042" d="M625.2,712.8c1.2,0,2.2-1,2.2-2.2v-12c0-1.2-1-2.2-2.2-2.2h-12c-1.2,0-2.2,1-2.2,2.2v12&#10;&#9;&#9;&#9;&#9;c0,1.2,1,2.2,2.2,2.2H625.2z"/>
		</g>
		<g id="XMLID_94_">
			<path fill="#414042" d="M608.4,710.6v-12c0-1.2-1-2.2-2.2-2.2h-12c-1.2,0-2.2,1-2.2,2.2v12c0,1.2,1,2.2,2.2,2.2h12&#10;&#9;&#9;&#9;&#9;C607.4,712.8,608.4,711.9,608.4,710.6z"/>
		</g>
		<g id="XMLID_93_">
			<path fill="#414042" d="M803.4,729.7v-12c0-1.2-1-2.2-2.2-2.2h-12c-1.2,0-2.2,1-2.2,2.2v12c0,1.2,1,2.2,2.2,2.2h12&#10;&#9;&#9;&#9;&#9;C802.5,731.9,803.4,730.9,803.4,729.7z"/>
		</g>
		<g id="XMLID_91_">
			<path fill="#414042" d="M784.4,729.7v-12c0-1.2-1-2.2-2.2-2.2h-12c-1.2,0-2.2,1-2.2,2.2v12c0,1.2,1,2.2,2.2,2.2h12&#10;&#9;&#9;&#9;&#9;C783.4,731.9,784.4,730.9,784.4,729.7z"/>
		</g>
		<g id="XMLID_90_">
			<path fill="#414042" d="M765.3,729.7v-12c0-1.2-1-2.2-2.2-2.2h-12c-1.2,0-2.2,1-2.2,2.2v12c0,1.2,1,2.2,2.2,2.2h12&#10;&#9;&#9;&#9;&#9;C764.3,731.9,765.3,730.9,765.3,729.7z"/>
		</g>
		<g id="XMLID_87_">
			<path fill="#414042" d="M732.1,731.9h12c1.2,0,2.2-1,2.2-2.2v-12c0-1.2-1-2.2-2.2-2.2h-12c-1.2,0-2.2,1-2.2,2.2v12&#10;&#9;&#9;&#9;&#9;C729.9,730.9,730.9,731.9,732.1,731.9z"/>
		</g>
		<g id="XMLID_86_">
			<path fill="#414042" d="M727.2,729.7v-12c0-1.2-1-2.2-2.2-2.2h-12c-1.2,0-2.2,1-2.2,2.2v12c0,1.2,1,2.2,2.2,2.2h12&#10;&#9;&#9;&#9;&#9;C726.2,731.9,727.2,730.9,727.2,729.7z"/>
		</g>
		<g id="XMLID_85_">
			<path fill="#414042" d="M708.1,729.7v-12c0-1.2-1-2.2-2.2-2.2h-12c-1.2,0-2.2,1-2.2,2.2v12c0,1.2,1,2.2,2.2,2.2h12&#10;&#9;&#9;&#9;&#9;C707.1,731.9,708.1,730.9,708.1,729.7z"/>
		</g>
		<g id="XMLID_84_">
			<path fill="#414042" d="M689.1,729.7v-12c0-1.2-1-2.2-2.2-2.2h-12c-1.2,0-2.2,1-2.2,2.2v12c0,1.2,1,2.2,2.2,2.2h12&#10;&#9;&#9;&#9;&#9;C688.1,731.9,689.1,730.9,689.1,729.7z"/>
		</g>
		<g id="XMLID_83_">
			<path fill="#414042" d="M670,729.7v-12c0-1.2-1-2.2-2.2-2.2h-12c-1.2,0-2.2,1-2.2,2.2v12c0,1.2,1,2.2,2.2,2.2h12&#10;&#9;&#9;&#9;&#9;C669,731.9,670,730.9,670,729.7z"/>
		</g>
		<g id="XMLID_82_">
			<path fill="#414042" d="M636.8,731.9h12c1.2,0,2.2-1,2.2-2.2v-12c0-1.2-1-2.2-2.2-2.2h-12c-1.2,0-2.2,1-2.2,2.2v12&#10;&#9;&#9;&#9;&#9;C634.5,730.9,635.5,731.9,636.8,731.9z"/>
		</g>
		<g id="XMLID_79_">
			<path fill="#414042" d="M631.9,729.7v-12c0-1.2-1-2.2-2.2-2.2h-12c-1.2,0-2.2,1-2.2,2.2v12c0,1.2,1,2.2,2.2,2.2h12&#10;&#9;&#9;&#9;&#9;C630.9,731.9,631.9,730.9,631.9,729.7z"/>
		</g>
		<g id="XMLID_78_">
			<path fill="#414042" d="M779.7,751h12c1.2,0,2.2-1,2.2-2.2v-12c0-1.2-1-2.2-2.2-2.2h-12c-1.2,0-2.2,1-2.2,2.2v12&#10;&#9;&#9;&#9;&#9;C777.5,750,778.5,751,779.7,751z"/>
		</g>
		<g id="XMLID_77_">
			<path fill="#414042" d="M760.7,751h12c1.2,0,2.2-1,2.2-2.2v-12c0-1.2-1-2.2-2.2-2.2h-12c-1.2,0-2.2,1-2.2,2.2v12&#10;&#9;&#9;&#9;&#9;C758.5,750,759.4,751,760.7,751z"/>
		</g>
		<g id="XMLID_76_">
			<path fill="#414042" d="M741.6,751h12c1.2,0,2.2-1,2.2-2.2v-12c0-1.2-1-2.2-2.2-2.2h-12c-1.2,0-2.2,1-2.2,2.2v12&#10;&#9;&#9;&#9;&#9;C739.4,750,740.4,751,741.6,751z"/>
		</g>
		<g id="XMLID_75_">
			<path fill="#414042" d="M796.7,762.9h-12c-1.2,0-2.2,1-2.2,2.2v4.8c0,1.2,1,2.2,2.2,2.2h12c1.2,0,2.2-1,2.2-2.2v-4.8&#10;&#9;&#9;&#9;&#9;C798.9,763.8,797.9,762.9,796.7,762.9z"/>
		</g>
		<g id="XMLID_74_">
			<path fill="#414042" d="M815.7,753.6h-12c-1.2,0-2.2,1-2.2,2.2v4.8c0,1.2,1,2.2,2.2,2.2c-1.2,0-2.2,1-2.2,2.2v4.8&#10;&#9;&#9;&#9;&#9;c0,1.2,1,2.2,2.2,2.2h12c1.2,0,2.2-1,2.2-2.2v-4.8c0-1.2-1-2.2-2.2-2.2c1.2,0,2.2-1,2.2-2.2v-4.8&#10;&#9;&#9;&#9;&#9;C817.9,754.6,817,753.6,815.7,753.6z"/>
		</g>
		<g id="XMLID_73_">
			<path fill="#414042" d="M834.8,762.9h-12c-1.2,0-2.2,1-2.2,2.2v4.8c0,1.2,1,2.2,2.2,2.2h12c1.2,0,2.2-1,2.2-2.2v-4.8&#10;&#9;&#9;&#9;&#9;C837,763.8,836,762.9,834.8,762.9z"/>
		</g>
		<g id="XMLID_72_">
			<path fill="#414042" d="M734.5,734.6h-12c-1.2,0-2.2,1-2.2,2.2v12c0,1.2,1,2.2,2.2,2.2h12c1.2,0,2.2-1,2.2-2.2v-12&#10;&#9;&#9;&#9;&#9;C736.7,735.6,735.7,734.6,734.5,734.6z"/>
		</g>
		<g id="XMLID_71_">
			<path fill="#414042" d="M703.5,751h12c1.2,0,2.2-1,2.2-2.2v-12c0-1.2-1-2.2-2.2-2.2h-12c-1.2,0-2.2,1-2.2,2.2v12&#10;&#9;&#9;&#9;&#9;C701.3,750,702.3,751,703.5,751z"/>
		</g>
		<g id="XMLID_70_">
			<path fill="#414042" d="M684.4,751h12c1.2,0,2.2-1,2.2-2.2v-12c0-1.2-1-2.2-2.2-2.2h-12c-1.2,0-2.2,1-2.2,2.2v12&#10;&#9;&#9;&#9;&#9;C682.2,750,683.2,751,684.4,751z"/>
		</g>
		<g id="XMLID_69_">
			<path fill="#414042" d="M665.3,751h12c1.2,0,2.2-1,2.2-2.2v-12c0-1.2-1-2.2-2.2-2.2h-12c-1.2,0-2.2,1-2.2,2.2v12&#10;&#9;&#9;&#9;&#9;C663.1,750,664.1,751,665.3,751z"/>
		</g>
		<g id="XMLID_68_">
			<path fill="#414042" d="M646.3,751h12c1.2,0,2.2-1,2.2-2.2v-12c0-1.2-1-2.2-2.2-2.2h-12c-1.2,0-2.2,1-2.2,2.2v12&#10;&#9;&#9;&#9;&#9;C644.1,750,645.1,751,646.3,751z"/>
		</g>
		<g id="XMLID_67_">
			<path fill="#414042" d="M639.2,734.6h-12c-1.2,0-2.2,1-2.2,2.2v12c0,1.2,1,2.2,2.2,2.2h12c1.2,0,2.2-1,2.2-2.2v-12&#10;&#9;&#9;&#9;&#9;C641.4,735.6,640.4,734.6,639.2,734.6z"/>
		</g>
		<g id="XMLID_66_">
			<path fill="#414042" d="M608.2,751h12c1.2,0,2.2-1,2.2-2.2v-12c0-1.2-1-2.2-2.2-2.2h-12c-1.2,0-2.2,1-2.2,2.2v12&#10;&#9;&#9;&#9;&#9;C606,750,606.9,751,608.2,751z"/>
		</g>
		<g id="XMLID_65_">
			<path fill="#414042" d="M577,753.6h-12c-1.2,0-2.2,1-2.2,2.2v14c0,1.2,1,2.2,2.2,2.2h12c1.2,0,2.2-1,2.2-2.2v-14&#10;&#9;&#9;&#9;&#9;C579.2,754.6,578.3,753.6,577,753.6z"/>
		</g>
		<g id="XMLID_64_">
			<path fill="#414042" d="M596.1,753.6h-12c-1.2,0-2.2,1-2.2,2.2v14c0,1.2,1,2.2,2.2,2.2h12c1.2,0,2.2-1,2.2-2.2v-14&#10;&#9;&#9;&#9;&#9;C598.3,754.6,597.3,753.6,596.1,753.6z"/>
		</g>
		<g id="XMLID_63_">
			<path fill="#414042" d="M615.2,753.6h-12c-1.2,0-2.2,1-2.2,2.2v14c0,1.2,1,2.2,2.2,2.2h12c1.2,0,2.2-1,2.2-2.2v-14&#10;&#9;&#9;&#9;&#9;C617.4,754.6,616.4,753.6,615.2,753.6z"/>
		</g>
		<g id="XMLID_62_">
			<path fill="#414042" d="M777.7,753.6h-12c-1.2,0-2.2,1-2.2,2.2v14c0,1.2,1,2.2,2.2,2.2h12c1.2,0,2.2-1,2.2-2.2v-14&#10;&#9;&#9;&#9;&#9;C780,754.6,779,753.6,777.7,753.6z"/>
		</g>
		<g id="XMLID_61_">
			<path fill="#414042" d="M639.2,753.6h-16.9c-1.2,0-2.2,1-2.2,2.2v14c0,1.2,1,2.2,2.2,2.2h16.9c1.2,0,2.2-1,2.2-2.2v-14&#10;&#9;&#9;&#9;&#9;C641.4,754.6,640.4,753.6,639.2,753.6z"/>
		</g>
		<g id="XMLID_60_">
			<path fill="#414042" d="M758.6,753.6h-16.9c-1.2,0-2.2,1-2.2,2.2v14c0,1.2,1,2.2,2.2,2.2h16.9c1.2,0,2.2-1,2.2-2.2v-14&#10;&#9;&#9;&#9;&#9;C760.8,754.6,759.8,753.6,758.6,753.6z"/>
		</g>
		<g id="XMLID_59_">
			<path fill="#414042" d="M734.5,753.6h-88.2c-1.2,0-2.2,1-2.2,2.2v14c0,1.2,1,2.2,2.2,2.2h88.2c1.2,0,2.2-1,2.2-2.2v-14&#10;&#9;&#9;&#9;&#9;C736.7,754.6,735.7,753.6,734.5,753.6z"/>
		</g>
		<g id="XMLID_58_">
			<path fill="#414042" d="M598.6,731.9h12c1.2,0,2.2-1,2.2-2.2v-12c0-1.2-1-2.2-2.2-2.2h-12c-1.2,0-2.2,1-2.2,2.2v12&#10;&#9;&#9;&#9;&#9;C596.4,730.9,597.4,731.9,598.6,731.9z"/>
		</g>
		<g id="XMLID_57_">
			<path fill="#414042" d="M565.1,712.8h22.1c1.2,0,2.2-1,2.2-2.2v-12c0-1.2-1-2.2-2.2-2.2h-22.1c-1.2,0-2.2,1-2.2,2.2v12&#10;&#9;&#9;&#9;&#9;C562.9,711.9,563.8,712.8,565.1,712.8z"/>
		</g>
		<g id="XMLID_56_">
			<path fill="#414042" d="M565.1,731.9h26.5c1.2,0,2.2-1,2.2-2.2v-12c0-1.2-1-2.2-2.2-2.2h-26.5c-1.2,0-2.2,1-2.2,2.2v12&#10;&#9;&#9;&#9;&#9;C562.9,730.9,563.8,731.9,565.1,731.9z"/>
		</g>
		<g id="XMLID_55_">
			<path fill="#414042" d="M834.9,715.5h-26.5c-1.2,0-2.2,1-2.2,2.2v12c0,1.2,1,2.2,2.2,2.2h26.5c1.2,0,2.2-1,2.2-2.2v-12&#10;&#9;&#9;&#9;&#9;C837.1,716.5,836.2,715.5,834.9,715.5z"/>
		</g>
		<g id="XMLID_54_">
			<path fill="#414042" d="M565.1,751h36c1.2,0,2.2-1,2.2-2.2v-12c0-1.2-1-2.2-2.2-2.2h-36c-1.2,0-2.2,1-2.2,2.2v12&#10;&#9;&#9;&#9;&#9;C562.9,750,563.8,751,565.1,751z"/>
		</g>
		<g id="XMLID_53_">
			<path fill="#414042" d="M834.9,734.6h-36c-1.2,0-2.2,1-2.2,2.2v12c0,1.2,1,2.2,2.2,2.2h36c1.2,0,2.2-1,2.2-2.2v-12&#10;&#9;&#9;&#9;&#9;C837.1,735.6,836.2,734.6,834.9,734.6z"/>
		</g>
	</g>
	<g id="XMLID_51_" transform="matrix(1, 0, 0, 1, -30.43504697646938, -134.27226656203692)">
		<path fill="#F1F2F2" d="M494,501.5h412c6,0,9.9,3.9,9.9,9.2c0.1-6.3-3.9-13.2-9.9-13.2H494c-6.1,0-10.1,6.9-9.9,13.2&#10;&#9;&#9;&#9;C484.1,505.5,488,501.5,494,501.5z"/>
	</g>
</g>

<path style="fill: rgb(0, 182, 190); fill-opacity: 1; stroke: rgb(0, 0, 0); stroke-opacity: 1; stroke-width: 0; paint-order: stroke;" d="M 498.96307373046875 368.1019287109375" transform="matrix(1, 0, 0, 1, -417.1391906738281, 0)"/></svg>