<?xml version="1.0" encoding="utf-8"?>
<svg id="master-artboard" viewBox="0 0 500 500" version="1.0" xmlns="http://www.w3.org/2000/svg" x="0px" y="0px" width="500px" height="500px" enable-background="new 0 0 1400 980"><rect id="ee-background" x="0" y="0" width="500" height="500" style="fill: white; fill-opacity: 0; pointer-events: none;"/>



<g transform="matrix(1, 0, 0, 1, -131.79713439941406, -282.2052001953125)">
	
	
	
	
	
	<g transform="matrix(1.0320871229219561, 0, 0, 1.0320871229219561, -356.34508455398026, -185.5174809076757)">
		<g>
			<path fill="#595E80" d="M766.1,812.5H651.8c-11.9,0-21.6-9.7-21.6-21.6V577.4c0-11.9,9.7-21.6,21.6-21.6h114.3&#10;&#9;&#9;&#9;&#9;c11.9,0,21.6,9.7,21.6,21.6V791C787.7,802.9,778.1,812.5,766.1,812.5z" style="fill: rgb(78, 82, 112);"/>
			<path d="M 742.799999 629 A 33.799999 33.799999 0 0 1 709 662.799999 A 33.799999 33.799999 0 0 1 675.200001 629 A 33.799999 33.799999 0 0 1 709 595.200001 A 33.799999 33.799999 0 0 1 742.799999 629 Z" fill="#323E50"/>
			<path d="M 756.599998 740.200012 A 47.599998 47.599998 0 0 1 709 787.800011 A 47.599998 47.599998 0 0 1 661.400002 740.200012 A 47.599998 47.599998 0 0 1 709 692.600014 A 47.599998 47.599998 0 0 1 756.599998 740.200012 Z" fill="#323E50"/>
			<path d="M 733.6 740.200012 A 24.6 24.6 0 0 1 709 764.800013 A 24.6 24.6 0 0 1 684.4 740.200012 A 24.6 24.6 0 0 1 709 715.600012 A 24.6 24.6 0 0 1 733.6 740.200012 Z" fill="#F6F4D6"/>
			<path d="M 727 629 A 18 18 0 0 1 709 647 A 18 18 0 0 1 691 629 A 18 18 0 0 1 709 611 A 18 18 0 0 1 727 629 Z" fill="#F6F4D6"/>
			<path d="M 688.000024 713.299988 A 3.6 3.6 0 0 1 684.400024 716.899988 A 3.6 3.6 0 0 1 680.800025 713.299988 A 3.6 3.6 0 0 1 684.400024 709.699988 A 3.6 3.6 0 0 1 688.000024 713.299988 Z" fill="#F6F4D6"/>
			<path d="M 737.199975 713.299988 A 3.6 3.6 0 0 1 733.599976 716.899988 A 3.6 3.6 0 0 1 729.999976 713.299988 A 3.6 3.6 0 0 1 733.599976 709.699988 A 3.6 3.6 0 0 1 737.199975 713.299988 Z" fill="#F6F4D6"/>
			<path d="M 688.000024 768.400024 A 3.6 3.6 0 0 1 684.400024 772.000024 A 3.6 3.6 0 0 1 680.800025 768.400024 A 3.6 3.6 0 0 1 684.400024 764.800025 A 3.6 3.6 0 0 1 688.000024 768.400024 Z" fill="#F6F4D6"/>
			<path d="M 737.199975 768.400024 A 3.6 3.6 0 0 1 733.599976 772.000024 A 3.6 3.6 0 0 1 729.999976 768.400024 A 3.6 3.6 0 0 1 733.599976 764.800025 A 3.6 3.6 0 0 1 737.199975 768.400024 Z" fill="#F6F4D6"/>
		</g>
		<g>
			<g>
				<path d="M 656 574.900024 A 6.5 6.5 0 0 1 649.5 581.400024 A 6.5 6.5 0 0 1 643 574.900024 A 6.5 6.5 0 0 1 649.5 568.400024 A 6.5 6.5 0 0 1 656 574.900024 Z" fill="#323E50"/>
				<path d="M 775 574.900024 A 6.5 6.5 0 0 1 768.5 581.400024 A 6.5 6.5 0 0 1 762 574.900024 A 6.5 6.5 0 0 1 768.5 568.400024 A 6.5 6.5 0 0 1 775 574.900024 Z" fill="#323E50"/>
			</g>
			<g>
				<path d="M 656 793.5 A 6.5 6.5 0 0 1 649.5 800 A 6.5 6.5 0 0 1 643 793.5 A 6.5 6.5 0 0 1 649.5 787 A 6.5 6.5 0 0 1 656 793.5 Z" fill="#323E50"/>
				<path d="M 775 793.5 A 6.5 6.5 0 0 1 768.5 800 A 6.5 6.5 0 0 1 762 793.5 A 6.5 6.5 0 0 1 768.5 787 A 6.5 6.5 0 0 1 775 793.5 Z" fill="#323E50"/>
			</g>
		</g>
		<g>
			<path fill="#323E50" d="M665.8,824.2h-9.2c-1.7,0-3.2-1.2-3.6-2.8l-2.3-8.8h21l-2.3,8.8C669,823,667.5,824.2,665.8,824.2z"/>
			<path fill="#323E50" d="M761.4,824.2h-9.2c-1.7,0-3.2-1.2-3.6-2.8l-2.3-8.8h21l-2.3,8.8C764.6,823,763.1,824.2,761.4,824.2z"/>
		</g>
	</g>
	
	
<g transform="matrix(1, 0, 0, 1, 43.91915512084961, -159.9172053131132)">
		
		
		
		
		
		
		
		
		
		
		
		
		
		
		
		
		
		
		
		
		
		
		
	<path style="fill: rgb(230, 223, 237); fill-opacity: 1; stroke: rgb(0, 0, 0); stroke-opacity: 1; stroke-width: 0; paint-order: fill;" d="M 263.2828674316406 606.0442504882812 L 263.2828674316406 606.0442504882812"/><path style="fill: rgb(230, 223, 237); fill-opacity: 1; stroke: rgb(0, 0, 0); stroke-opacity: 1; stroke-width: 0; paint-order: fill;" d="M 104.5855941772461 589.8672485351562"/></g></g></svg>