<?xml version="1.0" encoding="utf-8"?>
<svg id="master-artboard" viewBox="0 0 16 16" xmlns="http://www.w3.org/2000/svg" width="16px" height="16px"><rect id="ee-background" x="0" y="0" width="16" height="16" style="fill: white; fill-opacity: 0; pointer-events: none;"/><title>x-retro-alpha</title><path class="cls-2" d="M2464.3,935.68a3.8,3.8,0,0,0-2.88-.94l-22.09,1.94a4.54,4.54,0,0,0-3.57,2.42l-27.19,51.75-8.25-14.27a3.84,3.84,0,0,0-.69-.86l-34.38-31.37a3.76,3.76,0,0,0-2.88-.94l-22.09,1.93a4.53,4.53,0,0,0-2.88,1.45,4.45,4.45,0,0,0-1.19,3v140.81a3.71,3.71,0,0,0,1.19,2.77l34.38,31.37a3.73,3.73,0,0,0,2.88.94l27.77-2.43a4.52,4.52,0,0,0,4.07-4.42v-36.33l25.85,23.59a3.83,3.83,0,0,0,3.45.85,4.63,4.63,0,0,0,3-2.33l4.29-8.17,22.06,20.14a3.8,3.8,0,0,0,2.88.94l27.77-2.43a4.53,4.53,0,0,0,4.07-4.43V969.83a3.71,3.71,0,0,0-1.19-2.77Z" style="fill: rgb(44, 42, 22);" transform="matrix(0.07714632153511049, 0, 0, 0.07714632153511049, -178.48683166503906, -71.50670115152995)"/><path d="M 2400.85009765625 1013.989990234375 L 2362.3701171875 947.47998046875 L 2340.280029296875 949.4099731445312 L 2340.280029296875 1090.219970703125 L 2368.050048828125 1087.7900390625 L 2368.050048828125 1014.8699951171875 L 2400.85009765625 1071.56005859375 L 2433.64990234375 1009.1300048828125 L 2433.64990234375 1082.050048828125 L 2461.419921875 1079.6199951171875 L 2461.419921875 938.8200073242188 L 2439.330078125 940.75 L 2400.85009765625 1013.989990234375 Z" class="cls-3" style="fill: rgb(255, 255, 255);" transform="matrix(0.07714632153511049, 0, 0, 0.07714632153511049, -178.48683166503906, -71.50670115152995)"/><path class="cls-2" d="M2448.17,951.4a2.76,2.76,0,0,0-2.86,1.48l-44.46,84.62-44.46-76.84a2.35,2.35,0,0,0-2.86-1,2.84,2.84,0,0,0-1.91,2.63v113a2.3,2.3,0,0,0,2.55,2.33,2.85,2.85,0,0,0,2.54-2.77V971.76l41.91,72.44a2.31,2.31,0,0,0,2.23,1.12,2.84,2.84,0,0,0,2.23-1.51L2445,964v103.15a2.3,2.3,0,0,0,2.55,2.32,2.84,2.84,0,0,0,2.54-2.77v-113A2.28,2.28,0,0,0,2448.17,951.4Z" style="fill: rgb(55, 33, 79);" transform="matrix(0.07714632153511049, 0, 0, 0.07714632153511049, -178.48683166503906, -71.50670115152995)"/></svg>